<?xml version="1.0" encoding="UTF-8" standalone="no"?>
<svg
   width="16"
   height="15.999807"
   viewBox="0 0 16 15.999807"
   version="1.1"
   id="svg3"
   sodipodi:docname="move-down-symbolic.svg"
   inkscape:version="1.4.2 (ebf0e940d0, 2025-05-08)"
   xmlns:inkscape="http://www.inkscape.org/namespaces/inkscape"
   xmlns:sodipodi="http://sodipodi.sourceforge.net/DTD/sodipodi-0.dtd"
   xmlns="http://www.w3.org/2000/svg"
   xmlns:svg="http://www.w3.org/2000/svg"
   xmlns:rdf="http://www.w3.org/1999/02/22-rdf-syntax-ns#"
   xmlns:cc="http://creativecommons.org/ns#"
   xmlns:dc="http://purl.org/dc/elements/1.1/">
  <defs
     id="defs3" />
  <sodipodi:namedview
     id="namedview3"
     pagecolor="#ffffff"
     bordercolor="#000000"
     borderopacity="0.25"
     inkscape:showpageshadow="2"
     inkscape:pageopacity="0.0"
     inkscape:pagecheckerboard="0"
     inkscape:deskcolor="#d1d1d1"
     inkscape:zoom="45.254834"
     inkscape:cx="7.3472814"
     inkscape:cy="8.8388348"
     inkscape:window-width="2560"
     inkscape:window-height="1371"
     inkscape:window-x="0"
     inkscape:window-y="0"
     inkscape:window-maximized="1"
     inkscape:current-layer="svg3" />
  <title
     id="title1">Gnome Symbolic Icon Theme</title>
  <path
     id="path25389"
     style="fill:#2e3436;fill-opacity:1"
     d="m 13,9.618e-5 c 0.55228,0 1,0.44772 1,1.00000002 V 12.000096 h 1 1 v 1 h -0.006 c 0.002,0.26436 -0.10186,0.51856 -0.28711,0.70703 l -2,2.000001 c -0.39053,0.39037 -1.02353,0.39037 -1.41406,0 l -2,-2.000001 c -0.18539,-0.18847 -0.28911,-0.44267 -0.28711,-0.70703 h -0.006 v -1 h 1 1 V 1.0000962 c 0,-0.55228002 0.44772,-1.00000002 1,-1.00000002 z M 9.5,2.0000962 c 0.277,0 0.5,0.223 0.5,0.5 v 1 c 0,0.277 -0.223,0.5 -0.5,0.5 H 2.49853 c -0.277,0 -0.5,-0.223 -0.5,-0.5 v -1 c 0,-0.277 0.223,-0.5 0.5,-0.5 z m 0,3 c 0.277,0 0.5,0.223 0.5,0.5 v 1.0000003 c 0,0.277 -0.223,0.5 -0.5,0.5 h -7 c -0.277,0 -0.5,-0.223 -0.5,-0.5 V 5.5000962 c 0,-0.277 0.223,-0.5 0.5,-0.5 z m 0,3.0000003 c 0.277,0 0.5,0.223 0.5,0.5 v 1 c 0,0.277 -0.223,0.4999995 -0.5,0.4999995 h -9 C 0.223,10.000096 0,9.7770965 0,9.5000965 v -1 c 0,-0.277 0.223,-0.5 0.5,-0.5 z"
     sodipodi:nodetypes="ssccccccccccccccssssssssssssssssssssssssssssss" />
  <metadata
     id="metadata3">
    <rdf:RDF>
      <cc:Work
         rdf:about="">
        <dc:title>Gnome Symbolic Icon Theme</dc:title>
      </cc:Work>
    </rdf:RDF>
  </metadata>
</svg>
